<mxfile host="app.diagrams.net" modified="2024-01-24T05:39:49.591Z" agent="Mozilla/5.0 (Windows NT 10.0; Win64; x64) AppleWebKit/537.36 (KHTML, like Gecko) Chrome/120.0.0.0 Safari/537.36 Edg/120.0.0.0" version="22.1.21" etag="cfuWApqVUN0_BBS4baGq" type="github">
  <diagram name="Page-1" id="b70s3lb6-29QRJQH4YbK">
    <mxGraphModel>
      <root>
        <mxCell id="0" />
        <mxCell id="1" parent="0" />
      </root>
    </mxGraphModel>
  </diagram>
</mxfile>
